<?xml version="1.0" encoding="utf-8" ?>
<svg xmlns="http://www.w3.org/2000/svg" xmlns:xlink="http://www.w3.org/1999/xlink" width="18" height="24" viewBox="0 0 18 24">
	<defs>
		<clipPath id="clipPath3115879676">
			<path transform="matrix(1 0 0 1 0 0)" d="M0 0L18 0L18 24L0 24L0 0Z" fill-rule="nonzero"/>
		</clipPath>
	</defs>
	<g clip-path="url(#clipPath3115879676)">
		<path transform="matrix(1 0 0 1 2.39062 1.5)" d="M11.0637 11.0953C11.0566 9.375 11.6402 8.07656 12.8215 7.12031C12.1605 5.85938 11.1621 5.16563 9.84375 5.02969C8.5957 4.89844 7.23164 6 6.73242 6C6.20508 6 4.9957 5.07656 4.04648 5.07656C2.08477 5.11875 0 7.1625 0 11.3203C0 12.5484 0.16875 13.8172 0.50625 15.1266C0.95625 16.8469 2.58047 21.0656 4.275 20.9953C5.16094 20.9672 5.78672 20.1562 6.93984 20.1562C8.05781 20.1562 8.63789 20.9953 9.62578 20.9953C11.3344 20.9625 12.8039 17.1281 13.2328 15.4031C10.9406 13.9641 11.0637 11.1844 11.0637 11.0953ZM9.07383 3.39844C10.0336 1.87969 9.9457 0.496875 9.91758 0C9.07031 0.0656251 8.08945 0.76875 7.53047 1.63594C6.91523 2.56406 6.55313 3.7125 6.63047 5.00625C7.54805 5.1 8.38477 4.47188 9.07383 3.39844Z" fill-rule="nonzero" fill="rgb(255, 255, 255)"/>
	</g>
</svg>
