<svg width="54" height="48" viewBox="0 0 54 48" fill="none" xmlns="http://www.w3.org/2000/svg">
<path d="M18.5063 38.9506C18.9434 38.5136 19.4034 37.8006 20.8064 37.8006C22.2094 37.8006 36.6537 37.8006 38.0568 37.8006C39.3333 37.8006 46.3599 30.751 47.257 29.7504C48.1195 28.7844 51.9491 23.0343 53.0071 20.5502C52.3401 19.6532 50.5345 18.9057 48.407 19.4002C46.3714 19.8717 45.1754 21.3323 43.8069 24.0003L38.5398 26.7374" stroke="white" stroke-width="2" stroke-miterlimit="10" stroke-linejoin="round"/>
<path d="M25.406 30.9005C25.406 30.9005 34.6062 30.9005 35.7562 30.9005C40.3563 30.9005 40.3563 25.1504 35.7562 25.1504C34.6062 25.1504 31.7311 25.1504 28.5341 25.1504C27.5796 25.1504 25.774 22.8503 24.256 22.8503C23.5775 22.8503 20.0584 22.8503 18.5059 22.8503C16.9533 22.8503 15.0213 24.1154 13.9058 25.1504C12.1807 26.8754 9.30566 29.7505 9.30566 29.7505" stroke="white" stroke-width="2" stroke-miterlimit="10" stroke-linejoin="round"/>
<path d="M6.99676 27.451L1.24756 33.2002L15.0473 46.9999L20.7965 41.2507L6.99676 27.451Z" stroke="white" stroke-width="2" stroke-miterlimit="10" stroke-linejoin="round"/>
<path d="M7.00537 33.2007L9.30542 35.5007" stroke="white" stroke-width="2" stroke-miterlimit="10" stroke-linejoin="round"/>
<path d="M49.5561 19.4004V1H17.3555V22.8505" stroke="white" stroke-width="2" stroke-miterlimit="10"/>
<path d="M38.0557 1V5.6001H28.8555V1" stroke="white" stroke-width="2" stroke-miterlimit="10"/>
<path d="M20.8057 18.2504H23.1057" stroke="white" stroke-width="2" stroke-miterlimit="10"/>
<path d="M24.2559 18.2504H26.5559" stroke="white" stroke-width="2" stroke-miterlimit="10"/>
<path d="M27.7056 18.2504H30.0056" stroke="white" stroke-width="2" stroke-miterlimit="10"/>
</svg>
